<?xml version="1.0" encoding="utf-8"?>
<!-- Generator: Adobe Illustrator 25.4.1, SVG Export Plug-In . SVG Version: 6.00 Build 0)  -->
<svg version="1.1" id="Layer_1" xmlns="http://www.w3.org/2000/svg" xmlns:xlink="http://www.w3.org/1999/xlink" x="0px" y="0px"
	 viewBox="0 0 327.1 130.8" style="enable-background:new 0 0 327.1 130.8;" xml:space="preserve">
<style type="text/css">
	.st0{fill:#3669B1;}
</style>
<g>
	<path class="st0" d="M18.7,103.7l0.1-0.4c8.5-24.2,21.4-47.3,39-66.1c2.4-4.6,4.8-9.4,7.4-13.9c0.1-0.1,0.2-0.2,0.3-0.2
		c0.4,0,1.2,0.9,1.2,1.6l-0.1,0.3c-1.4,2.4-2.7,5.1-4.1,7.5c3.2-3,9-8.2,13.4-9l1.2-0.2c1.9,0,3.2,1.2,3.8,3.2
		c0.2,0.7,0.3,1.4,0.3,2.3c0,6.8-6,18.9-8.9,24.4C78,45.7,94,25.7,103,23.6c0.4-0.1,1-0.2,1.3-0.2c2.1,0,3.5,1.3,4.2,3.5
		c0.4,1.2,0.5,2.5,0.5,4.1c0,18.1-24.3,61.8-31.5,74.2l-0.3,0.2c-0.4,0-1.1-0.9-1.1-1.5l0.1-0.4c6.8-11.6,31.5-56.3,31.5-73.4
		c0-1.3-0.2-2.5-0.4-3.5c-0.4-1.1-1.2-1.4-2.1-1.4l-1.2,0.2c-10.5,2.6-31.2,30.1-38,39l-0.3,0.2c-0.4,0-1.1-1-1.1-1.6l0.1-0.3
		c3.4-5.8,15.1-26.6,15.1-35c0-0.6-0.1-1.2-0.2-1.7c-0.3-0.7-0.9-0.9-1.6-0.9c-0.4,0-0.8,0.1-1.2,0.2c-5.6,1.2-14,9.5-17.7,13.5
		c-3.4,6.3-33.9,63.8-38.8,67.3l-0.3,0.1C19.3,106.2,18.7,104.6,18.7,103.7z M53.5,45C39,62.3,28.3,81.5,20.9,102.7
		C32.5,83.6,42.9,64.7,53.5,45z"/>
	<path class="st0" d="M110.8,72.9c-1-0.5-1.3-1.6-1.3-2.7c0-1.3,0.4-2.7,0.9-3.7c-1.9,1.2-3.3,1.6-4.2,1.6H106c-1.4-0.1-2-1.1-2-2.5
		c0-0.7,0.3-1.6,0.9-2.4c1.2-2,4-4.2,6.7-4.2c1.5,0.1,2.7,1.2,2.7,2.7c0,0.4-0.3,1.1-0.5,1.4c-0.1,0.1-0.2,0.2-0.3,0.2
		c-0.4,0-1.1-0.9-1.1-1.4l0.1-0.4l0.2-0.4h-0.5c-2.4,0-4.8,1.9-6,3.8c-0.3,0.4-0.5,0.9-0.6,1.2c1,0,2.6-0.7,5.2-2.4
		c0.8-0.5,1.2-0.8,1.5-0.8c0.2,0,1.2,0.7,1.2,1.4v0.2c-0.9,1.4-2.5,4.9-2.5,6.6v0.1h0.1c2.7,0,9.6-7.9,11.2-9.7l0.2-0.1
		c0.2,0,0.5,0.2,0.7,0.5c0.3,0.4,0.4,0.7,0.4,1l-0.1,0.4c-1.3,1.5-8.2,9.7-11.6,9.7C111.3,73.1,111.1,73.1,110.8,72.9z"/>
	<path class="st0" d="M119.6,84v-0.2c0.4-3.6,13.9-22.9,17.3-28.1c-2.6,1.8-16.3,14.9-17.5,14.9c-0.6,0-1.2-1.6-1.2-2.1
		c0.1-0.3,6.7-12.2,7.4-13.5l0.3-0.2c0.4,0,1.1,0.9,1.1,1.5l-0.1,0.4c-1.9,3.3-3.7,6.6-5.5,9.9c2.3-2.2,13.6-13.1,15.7-13.1
		c0.6,0,1.9,1.2,1.9,1.9c-0.1,1.4-15.2,22.9-17.5,28.2c6.1-4.3,16.1-16.1,21.2-22l0.3-0.1c0.3,0,0.5,0.2,0.8,0.5
		c0.2,0.4,0.3,0.7,0.3,1c0,0.2,0,0.3-0.1,0.4c-3.2,3.6-19,21.5-22.5,22.7l-0.4,0.1C119.9,86.1,119.6,84.7,119.6,84z"/>
	<path class="st0" d="M141.9,72.8c-0.8-0.4-1.4-1.1-1.8-2c-0.3-0.5-0.4-1.2-0.4-1.9c0-3.7,3.2-9,5.9-9.9l1-0.2
		c1.2,0,2.4,0.5,2.9,1.5c0.4,0,1.6,1,1.8,2l0.1,0.7l-0.2,1.2c2.5-0.6,5.3-1.8,7.7-2.7h0.1c0.3,0,0.7,0.3,1,0.7
		c0.2,0.3,0.2,0.5,0.2,0.7c0,0.3,0,0.4-0.2,0.4c-1.9,0.9-6.9,2.9-9.3,2.9h-0.3c-1.2,2.7-3.9,6.9-7,6.9
		C142.9,73.3,142.4,73.1,141.9,72.8z M148.9,65.5c-0.6-0.8-1.2-1.8-1.2-2.8c0-0.6,0.2-1.2,0.6-1.7c-0.3-0.1-0.6-0.2-1-0.2l-0.7,0.1
		c-2.6,0.9-5.5,5.8-5.5,8.9l0.1,0.9c0.4,0.4,1,0.6,1.5,0.6C145.2,71.3,147.9,67.5,148.9,65.5z M150,62.4c-0.5,0.3-0.9,0.8-0.9,1.3
		c0,0.2,0.1,0.4,0.3,0.6C149.8,63.5,149.9,62.8,150,62.4z"/>
	<path class="st0" d="M150.5,85.4c-1.1-0.4-1.8-1-1.8-2.4c0-0.8,0.2-1.8,0.6-3.1c1.2-3.3,4.1-8.9,9.1-17.6
		c0.2,0,19.1-35.7,22.7-38.9l0.3-0.1c0.5,0,1.3,0.7,1.3,2l-0.1,0.8c-2.4,10.5-14.4,31.1-22.6,37.2c-2.5,4.3-9.3,15.7-9.7,20.2h0.1
		c3,0,24.2-18.6,28.4-22l0.2-0.1c0.3,0,0.6,0.3,0.8,0.6c0.2,0.4,0.4,0.6,0.4,0.9c0,0.2-0.1,0.3-0.2,0.4
		c-4.8,3.9-25.2,22.1-29.2,22.1H150.5z M180.2,28.4c-7.6,13.2-13,22.5-16.7,29C170.2,49.9,176.6,37.8,180.2,28.4z"/>
	<path class="st0" d="M178,72.8c-0.8-0.4-1.4-1.1-1.8-2c-0.3-0.5-0.4-1.2-0.4-1.9c0-3.7,3.2-9,5.9-9.9l1-0.2c1.2,0,2.4,0.5,2.9,1.5
		c0.4,0,1.6,1,1.8,2l0.1,0.7l-0.2,1.2c2.5-0.6,5.3-1.8,7.7-2.7h0.1c0.3,0,0.7,0.3,1,0.7c0.2,0.3,0.2,0.5,0.2,0.7
		c0,0.3,0,0.4-0.2,0.4c-1.9,0.9-6.9,2.9-9.3,2.9h-0.3c-1.2,2.7-3.9,6.9-7,6.9C179.1,73.3,178.6,73.1,178,72.8z M185,65.5
		c-0.6-0.8-1.2-1.8-1.2-2.8c0-0.6,0.2-1.2,0.6-1.7c-0.3-0.1-0.6-0.2-1-0.2l-0.7,0.1c-2.6,0.9-5.5,5.8-5.5,8.9l0.1,0.9
		c0.4,0.4,1,0.6,1.5,0.6C181.3,71.3,184.1,67.5,185,65.5z M186.2,62.4c-0.5,0.3-0.9,0.8-0.9,1.3c0,0.2,0.1,0.4,0.3,0.6
		C185.9,63.5,186.1,62.8,186.2,62.4z"/>
	<path class="st0" d="M188.1,105.3c-3.9-1.3-6.3-4.7-6.3-8.6c0-0.7,0.1-1.4,0.3-2.2c3.1-14.2,28.6-23.9,41.5-27.6
		c-2.6-6.7-7.4-14.4-7.4-21.7c0-2.7,0.6-5.2,2.2-7.8c4.7-7.7,18.6-14.3,27.7-14.4h0.6c4.5,0,8.8,2,8.9,7.4c0,2.5-1,5.7-3.4,9.7
		c-0.1,0.1-0.2,0.2-0.3,0.2c-0.4,0-1.1-0.8-1.1-1.4l0.1-0.4c2.3-3.9,3.2-6.9,3.2-9.2c-0.1-3.9-4.3-4.4-7.4-4.4
		c-9,0.3-22.7,6.7-27.3,14.3c-1.4,2.3-1.9,4.7-1.9,7.2c0,6.9,4.5,14.1,7,20.3c7.2-1.9,15.3-3.7,24.7-5.1h0.1c0.3,0,0.6,0.4,0.9,0.9
		l0.2,0.6c0,0.2-0.1,0.4-0.3,0.4c-9.4,1.3-17.7,3.1-24.9,5.1c0.9,2.7,1.3,5.2,1.3,7.7c0,16.9-19.7,29.8-33.2,29.8
		C191.6,106.1,189.7,105.8,188.1,105.3z M225.4,75.4c0-2.1-0.4-4.3-1.1-6.6c-12.5,3.5-37.7,13.2-40.8,27c-0.2,0.7-0.3,1.3-0.3,1.9
		c0,2.7,1.5,4.6,4.4,5.6c1.5,0.5,3.1,0.7,5,0.7C205.7,104.1,225.4,91.5,225.4,75.4z"/>
	<path class="st0" d="M253.7,72.9c-1-0.5-1.3-1.6-1.3-2.7c0-1.3,0.4-2.7,0.9-3.7c-1.9,1.2-3.3,1.6-4.2,1.6h-0.2
		c-1.4-0.1-2-1.1-2-2.5c0-0.7,0.3-1.6,0.9-2.4c1.2-2,4-4.2,6.7-4.2c1.5,0.1,2.7,1.2,2.7,2.7c0,0.4-0.3,1.1-0.5,1.4
		c-0.1,0.1-0.2,0.2-0.3,0.2c-0.4,0-1.1-0.9-1.1-1.4l0.1-0.4l0.2-0.4H255c-2.4,0-4.8,1.9-6,3.8c-0.3,0.4-0.5,0.9-0.6,1.2
		c1,0,2.6-0.7,5.2-2.4c0.8-0.5,1.2-0.8,1.5-0.8c0.2,0,1.2,0.7,1.2,1.4v0.2c-0.9,1.4-2.5,4.9-2.5,6.6v0.1h0.1c2.7,0,9.6-7.9,11.2-9.7
		l0.2-0.1c0.2,0,0.5,0.2,0.7,0.5c0.3,0.4,0.4,0.7,0.4,1l-0.1,0.4c-1.3,1.5-8.2,9.7-11.6,9.7C254.2,73.1,254,73.1,253.7,72.9z"/>
	<path class="st0" d="M262.5,84v-0.2c0.4-3.6,13.9-22.9,17.3-28.1c-2.6,1.8-16.3,14.9-17.5,14.9c-0.6,0-1.2-1.6-1.2-2.1
		c0.1-0.3,6.7-12.2,7.4-13.5l0.3-0.2c0.4,0,1.1,0.9,1.1,1.5l-0.1,0.4c-1.9,3.3-3.7,6.6-5.5,9.9c2.3-2.2,13.6-13.1,15.7-13.1
		c0.6,0,1.9,1.2,1.9,1.9c-0.1,1.4-15.2,22.9-17.5,28.2c6.1-4.3,16.1-16.1,21.2-22l0.3-0.1c0.3,0,0.5,0.2,0.8,0.5
		c0.2,0.4,0.3,0.7,0.3,1c0,0.2,0,0.3-0.1,0.4c-3.2,3.6-19,21.5-22.5,22.7l-0.4,0.1C262.8,86.1,262.5,84.7,262.5,84z"/>
	<path class="st0" d="M264.8,104.7c-1.1-0.7-1.7-1.9-1.7-3.3v-0.6c1-7.5,18.4-21.2,23.8-25.3l0.1-1.2c0-0.4,0-0.7-0.1-1
		c-0.3-1.8-1.6-2.2-3.1-2.2c-0.6,0-1.2,0.1-1.9,0.2h-0.1c-0.4,0-0.9-0.7-0.9-1.4l0.1-0.5c4.9-0.8,17.1-4.5,17.1-10.7
		c0-0.4,0-0.8-0.1-1.2c-0.5-0.4-1.2-0.6-1.9-0.6c-3.4,0-8,4.7-9.6,6.6l-0.2,0.1c-0.3,0-0.6-0.2-0.8-0.5c-0.3-0.4-0.4-0.7-0.4-1
		l0.1-0.4c2-2.4,6.4-6.6,10.1-6.6c0.4,0,0.9,0.1,1.3,0.2c1.8,0.5,2.8,2.3,2.8,4.2v0.2c-0.2,5.8-8.5,9.6-13.3,10.8
		c1.2,1.1,1.9,2.6,2,4.2c5.1-3.9,11.3-8.2,18.4-12.8l0.2-0.1c0.2,0,0.5,0.3,0.8,0.7c0.2,0.3,0.3,0.6,0.3,0.9c0,0.2-0.1,0.3-0.2,0.4
		c-7.7,5.1-14.3,9.7-19.6,13.7c-0.7,4.7-3.8,11.1-7.7,16.5c-1.9,2.8-8.9,11.6-13.9,11.6C266,105.3,265.4,105.1,264.8,104.7z
		 M279.4,92c3.1-4.3,5.7-9.2,6.9-13.2c-2.2,1.7-21.8,16.9-21.8,23.4c0,0.3,0,0.5,0.1,0.8c0.4,0.2,0.9,0.3,1.3,0.3
		C270.8,103.2,277.3,94.9,279.4,92z"/>
</g>
</svg>
